<svg width="49" height="69" viewBox="0 0 49 69" fill="none" xmlns="http://www.w3.org/2000/svg">
<path d="M0.348206 32.5977H22.3726L9.88051 53.8837H0.348206V32.5977Z" fill="#2D2D2D"/>
<path d="M48.0967 16.2917C48.0967 17.1731 48.0532 18.0104 47.9226 18.8037V18.8918C47.4003 22.3734 45.7898 25.5024 43.4394 27.8822C43.3523 27.9703 43.2653 28.0585 43.1782 28.1466C43.1782 28.1466 43.1782 28.1466 43.1347 28.1907C41.3066 29.8654 39.2173 31.0993 36.8234 31.8045C35.7352 32.113 34.647 32.3774 33.4283 32.5096C32.6448 32.5977 31.9484 32.6418 31.9484 32.6418H22.3726L0.130574 21.6242L0 0.25H29.8591C30.0768 0.25 30.2944 0.25 30.512 0.25C33.9071 0.294071 36.7798 0.866982 39.1738 1.92467C39.2173 1.92467 39.2173 1.92468 39.2609 1.96875C44.484 4.56891 48.0532 9.98958 48.0967 16.2917Z" fill="#606060"/>
<path d="M5.4843 61.5082C5.96309 61.7286 6.35483 62.037 6.61599 62.4777C6.87715 62.9185 7.00773 63.4032 7.00773 63.9761C7.00773 64.5491 6.87715 65.0338 6.61599 65.4746C6.35483 65.9153 5.96309 66.2237 5.4843 66.4441C5.00551 66.6644 4.39614 66.7967 3.74324 66.7967H2.21982V68.912H0.47876V61.1997H3.74324C4.39614 61.1997 5.00551 61.2879 5.4843 61.5082ZM4.8314 64.9457C5.09256 64.7253 5.22314 64.3728 5.22314 63.9761C5.22314 63.5354 5.09256 63.227 4.8314 62.9625C4.57024 62.7422 4.13497 62.61 3.61266 62.61H2.17629V65.2983H3.61266C4.1785 65.2983 4.57024 65.1661 4.8314 64.9457Z" fill="#2D2D2D"/>
<path d="M13.1015 68.868L11.6216 66.7085H11.5345H10.0111V68.868H8.27002V61.1997H11.5345C12.1874 61.1997 12.7968 61.3319 13.2756 61.5523C13.7544 61.7726 14.1461 62.0811 14.4072 62.5218C14.6684 62.9625 14.799 63.4473 14.799 64.0202C14.799 64.5931 14.6684 65.0779 14.4072 65.5186C14.1461 65.9152 13.7543 66.2678 13.232 66.4882L14.9296 68.9561L13.1015 68.868ZM12.6662 62.9625C12.405 62.7422 11.9698 62.61 11.4474 62.61H10.0111V65.2983H11.4474C11.9698 65.2983 12.3615 65.1661 12.6662 64.9457C12.9274 64.7253 13.0579 64.3728 13.0579 63.9761C13.0579 63.5354 12.9274 63.227 12.6662 62.9625Z" fill="#2D2D2D"/>
<path d="M21.2409 67.2374H17.7153L17.0624 68.868H15.2343L18.6293 61.1997H20.3704L23.7654 68.868H21.9373L21.2409 67.2374ZM20.6751 65.8712L19.4563 62.9185L18.2376 65.8712H20.6751Z" fill="#2D2D2D"/>
<path d="M31.1213 65.5627C31.3825 65.8712 31.4695 66.2678 31.4695 66.7526C31.4695 67.4137 31.2084 67.9425 30.6861 68.2951C30.1638 68.6476 29.4238 68.8239 28.4227 68.8239H24.5053V61.1997H28.2051C29.1191 61.1997 29.8591 61.376 30.3379 61.7286C30.8167 62.0811 31.0778 62.5659 31.0778 63.1829C31.0778 63.5354 30.9907 63.888 30.8166 64.1965C30.6425 64.505 30.3814 64.7253 30.0767 64.9016C30.5555 65.0338 30.9037 65.2542 31.1213 65.5627ZM26.2899 62.5218V64.3287H28.031C28.4662 64.3287 28.8144 64.2406 29.0321 64.1084C29.2497 63.9762 29.3803 63.7117 29.3803 63.4473C29.3803 63.1388 29.2497 62.9185 29.0321 62.7862C28.8144 62.654 28.4662 62.5659 28.031 62.5659L26.2899 62.5218ZM29.3803 67.2814C29.5979 67.1492 29.7285 66.8848 29.7285 66.5763C29.7285 65.9593 29.2497 65.6068 28.3356 65.6068H26.2899V67.5018H28.3356C28.8144 67.5459 29.1626 67.4577 29.3803 67.2814Z" fill="#2D2D2D"/>
<path d="M34.3859 68.4712C33.733 68.1187 33.2542 67.6339 32.906 67.061C32.5578 66.444 32.3837 65.7829 32.3837 65.0337C32.3837 64.2845 32.5578 63.6235 32.906 63.0065C33.2542 62.3895 33.7765 61.9488 34.3859 61.5962C35.0388 61.2437 35.7352 61.0674 36.5187 61.0674C37.3022 61.0674 37.9986 61.2437 38.6515 61.5962C39.3044 61.9488 39.7832 62.4336 40.1314 63.0065C40.4796 63.5794 40.6537 64.2845 40.6537 65.0337C40.6537 65.7829 40.4796 66.444 40.1314 67.061C39.7832 67.6779 39.2608 68.1187 38.6515 68.4712C38.0421 68.8238 37.3022 69.0001 36.5187 69.0001C35.7352 69.0001 34.9953 68.8238 34.3859 68.4712ZM37.7374 67.1932C38.0856 66.9728 38.3903 66.7084 38.608 66.3118C38.8256 65.9592 38.9126 65.5185 38.9126 65.0337C38.9126 64.549 38.8256 64.1523 38.608 63.7557C38.3903 63.4031 38.1292 63.0946 37.7374 62.8743C37.3892 62.6539 36.9539 62.5658 36.5187 62.5658C36.0834 62.5658 35.6482 62.6539 35.2999 62.8743C34.9517 63.0946 34.647 63.359 34.4294 63.7557C34.2118 64.1082 34.1247 64.549 34.1247 65.0337C34.1247 65.5185 34.2118 65.9151 34.4294 66.3118C34.647 66.6643 34.9082 66.9728 35.2999 67.1932C35.6482 67.4135 36.0834 67.5017 36.5187 67.5017C36.9539 67.5017 37.3457 67.3695 37.7374 67.1932Z" fill="#2D2D2D"/>
<path d="M43.4394 62.654H41.0019V61.1997H47.6179V62.654H45.1804V68.868H43.4394V62.654Z" fill="#2D2D2D"/>
<path d="M46.7039 53.8837H22.3726V32.5977H31.9484L46.7039 53.8837Z" fill="#444444"/>
</svg>
