<svg width="620" height="268" viewBox="0 0 620 268" fill="none" xmlns="http://www.w3.org/2000/svg">
<rect width="620" height="268" fill="url(#paint0_linear_335_5)" fill-opacity="0.7"/>
<line x1="40" y1="214" x2="580" y2="214" stroke="white" stroke-width="2"/>
<line x1="40" y1="212" x2="228" y2="212" stroke="#7AB674" stroke-width="6"/>
<path d="M46.2656 227.602V239H44.0156V230.195L41.3125 231.055V229.281L46.0234 227.602H46.2656ZM52.0859 233.82L50.2891 233.391L50.9375 227.625H57.3281V229.445H52.7891L52.5078 231.969C52.6589 231.88 52.888 231.786 53.1953 231.688C53.5026 231.583 53.8464 231.531 54.2266 231.531C54.7786 231.531 55.2682 231.617 55.6953 231.789C56.1224 231.961 56.4844 232.211 56.7812 232.539C57.0833 232.867 57.3125 233.268 57.4688 233.742C57.625 234.216 57.7031 234.753 57.7031 235.352C57.7031 235.857 57.625 236.339 57.4688 236.797C57.3125 237.25 57.0755 237.656 56.7578 238.016C56.4401 238.37 56.0417 238.648 55.5625 238.852C55.0833 239.055 54.5156 239.156 53.8594 239.156C53.3698 239.156 52.8958 239.083 52.4375 238.938C51.9844 238.792 51.5755 238.576 51.2109 238.289C50.8516 238.003 50.5625 237.656 50.3438 237.25C50.1302 236.839 50.0182 236.37 50.0078 235.844H52.2422C52.2734 236.167 52.3568 236.445 52.4922 236.68C52.6328 236.909 52.8177 237.086 53.0469 237.211C53.276 237.336 53.5443 237.398 53.8516 237.398C54.138 237.398 54.3828 237.344 54.5859 237.234C54.7891 237.125 54.9531 236.974 55.0781 236.781C55.2031 236.583 55.2943 236.354 55.3516 236.094C55.4141 235.828 55.4453 235.542 55.4453 235.234C55.4453 234.927 55.4089 234.648 55.3359 234.398C55.263 234.148 55.151 233.932 55 233.75C54.849 233.568 54.6562 233.427 54.4219 233.328C54.1927 233.229 53.9245 233.18 53.6172 233.18C53.2005 233.18 52.8776 233.245 52.6484 233.375C52.4245 233.505 52.237 233.654 52.0859 233.82ZM59.3359 237.914C59.3359 237.581 59.4505 237.302 59.6797 237.078C59.9141 236.854 60.224 236.742 60.6094 236.742C60.9948 236.742 61.3021 236.854 61.5312 237.078C61.7656 237.302 61.8828 237.581 61.8828 237.914C61.8828 238.247 61.7656 238.526 61.5312 238.75C61.3021 238.974 60.9948 239.086 60.6094 239.086C60.224 239.086 59.9141 238.974 59.6797 238.75C59.4505 238.526 59.3359 238.247 59.3359 237.914ZM59.3359 231.469C59.3359 231.135 59.4505 230.857 59.6797 230.633C59.9141 230.409 60.224 230.297 60.6094 230.297C60.9948 230.297 61.3021 230.409 61.5312 230.633C61.7656 230.857 61.8828 231.135 61.8828 231.469C61.8828 231.802 61.7656 232.081 61.5312 232.305C61.3021 232.529 60.9948 232.641 60.6094 232.641C60.224 232.641 59.9141 232.529 59.6797 232.305C59.4505 232.081 59.3359 231.802 59.3359 231.469ZM71.3281 232.312V234.281C71.3281 235.135 71.237 235.872 71.0547 236.492C70.8724 237.107 70.6094 237.612 70.2656 238.008C69.9271 238.398 69.5234 238.688 69.0547 238.875C68.5859 239.062 68.0651 239.156 67.4922 239.156C67.0339 239.156 66.6068 239.099 66.2109 238.984C65.8151 238.865 65.4583 238.68 65.1406 238.43C64.8281 238.18 64.5573 237.865 64.3281 237.484C64.1042 237.099 63.9323 236.641 63.8125 236.109C63.6927 235.578 63.6328 234.969 63.6328 234.281V232.312C63.6328 231.458 63.724 230.727 63.9062 230.117C64.0938 229.503 64.3568 229 64.6953 228.609C65.0391 228.219 65.4453 227.932 65.9141 227.75C66.3828 227.562 66.9036 227.469 67.4766 227.469C67.9349 227.469 68.3594 227.529 68.75 227.648C69.1458 227.763 69.5026 227.943 69.8203 228.188C70.138 228.432 70.4089 228.747 70.6328 229.133C70.8568 229.513 71.0286 229.969 71.1484 230.5C71.2682 231.026 71.3281 231.63 71.3281 232.312ZM69.0703 234.578V232.008C69.0703 231.596 69.0469 231.237 69 230.93C68.9583 230.622 68.8932 230.362 68.8047 230.148C68.7161 229.93 68.6068 229.753 68.4766 229.617C68.3464 229.482 68.1979 229.383 68.0312 229.32C67.8646 229.258 67.6797 229.227 67.4766 229.227C67.2214 229.227 66.9948 229.276 66.7969 229.375C66.6042 229.474 66.4401 229.633 66.3047 229.852C66.1693 230.065 66.0651 230.352 65.9922 230.711C65.9245 231.065 65.8906 231.497 65.8906 232.008V234.578C65.8906 234.99 65.9115 235.352 65.9531 235.664C66 235.977 66.0677 236.245 66.1562 236.469C66.25 236.688 66.3594 236.867 66.4844 237.008C66.6146 237.143 66.763 237.242 66.9297 237.305C67.1016 237.367 67.2891 237.398 67.4922 237.398C67.7422 237.398 67.9635 237.349 68.1562 237.25C68.3542 237.146 68.5208 236.984 68.6562 236.766C68.7969 236.542 68.901 236.25 68.9688 235.891C69.0365 235.531 69.0703 235.094 69.0703 234.578ZM80.6406 237.242V239H72.8594V237.5L76.5391 233.555C76.9089 233.143 77.2005 232.781 77.4141 232.469C77.6276 232.151 77.7812 231.867 77.875 231.617C77.974 231.362 78.0234 231.12 78.0234 230.891C78.0234 230.547 77.9661 230.253 77.8516 230.008C77.737 229.758 77.5677 229.565 77.3438 229.43C77.125 229.294 76.8542 229.227 76.5312 229.227C76.1875 229.227 75.8906 229.31 75.6406 229.477C75.3958 229.643 75.2083 229.875 75.0781 230.172C74.9531 230.469 74.8906 230.805 74.8906 231.18H72.6328C72.6328 230.503 72.7943 229.883 73.1172 229.32C73.4401 228.753 73.8958 228.302 74.4844 227.969C75.0729 227.63 75.7708 227.461 76.5781 227.461C77.375 227.461 78.0469 227.591 78.5938 227.852C79.1458 228.107 79.5625 228.477 79.8438 228.961C80.1302 229.44 80.2734 230.013 80.2734 230.68C80.2734 231.055 80.2135 231.422 80.0938 231.781C79.974 232.135 79.8021 232.49 79.5781 232.844C79.3594 233.193 79.0938 233.547 78.7812 233.906C78.4688 234.266 78.1224 234.638 77.7422 235.023L75.7656 237.242H80.6406Z" fill="white"/>
<path d="M547.484 234.75V236.516H539.289L539.18 235.148L543.922 227.625H545.711L543.773 230.867L541.414 234.75H547.484ZM546.195 227.625V239H543.945V227.625H546.195ZM554.187 227.602V239H551.937V230.195L549.234 231.055V229.281L553.945 227.602H554.187ZM558.07 237.914C558.07 237.581 558.185 237.302 558.414 237.078C558.648 236.854 558.958 236.742 559.344 236.742C559.729 236.742 560.036 236.854 560.266 237.078C560.5 237.302 560.617 237.581 560.617 237.914C560.617 238.247 560.5 238.526 560.266 238.75C560.036 238.974 559.729 239.086 559.344 239.086C558.958 239.086 558.648 238.974 558.414 238.75C558.185 238.526 558.07 238.247 558.07 237.914ZM558.07 231.469C558.07 231.135 558.185 230.857 558.414 230.633C558.648 230.409 558.958 230.297 559.344 230.297C559.729 230.297 560.036 230.409 560.266 230.633C560.5 230.857 560.617 231.135 560.617 231.469C560.617 231.802 560.5 232.081 560.266 232.305C560.036 232.529 559.729 232.641 559.344 232.641C558.958 232.641 558.648 232.529 558.414 232.305C558.185 232.081 558.07 231.802 558.07 231.469ZM570.062 232.312V234.281C570.062 235.135 569.971 235.872 569.789 236.492C569.607 237.107 569.344 237.612 569 238.008C568.661 238.398 568.258 238.688 567.789 238.875C567.32 239.062 566.799 239.156 566.227 239.156C565.768 239.156 565.341 239.099 564.945 238.984C564.549 238.865 564.193 238.68 563.875 238.43C563.562 238.18 563.292 237.865 563.062 237.484C562.838 237.099 562.667 236.641 562.547 236.109C562.427 235.578 562.367 234.969 562.367 234.281V232.312C562.367 231.458 562.458 230.727 562.641 230.117C562.828 229.503 563.091 229 563.43 228.609C563.773 228.219 564.18 227.932 564.648 227.75C565.117 227.562 565.638 227.469 566.211 227.469C566.669 227.469 567.094 227.529 567.484 227.648C567.88 227.763 568.237 227.943 568.555 228.188C568.872 228.432 569.143 228.747 569.367 229.133C569.591 229.513 569.763 229.969 569.883 230.5C570.003 231.026 570.062 231.63 570.062 232.312ZM567.805 234.578V232.008C567.805 231.596 567.781 231.237 567.734 230.93C567.693 230.622 567.628 230.362 567.539 230.148C567.45 229.93 567.341 229.753 567.211 229.617C567.081 229.482 566.932 229.383 566.766 229.32C566.599 229.258 566.414 229.227 566.211 229.227C565.956 229.227 565.729 229.276 565.531 229.375C565.338 229.474 565.174 229.633 565.039 229.852C564.904 230.065 564.799 230.352 564.727 230.711C564.659 231.065 564.625 231.497 564.625 232.008V234.578C564.625 234.99 564.646 235.352 564.687 235.664C564.734 235.977 564.802 236.245 564.891 236.469C564.984 236.688 565.094 236.867 565.219 237.008C565.349 237.143 565.497 237.242 565.664 237.305C565.836 237.367 566.023 237.398 566.227 237.398C566.477 237.398 566.698 237.349 566.891 237.25C567.088 237.146 567.255 236.984 567.391 236.766C567.531 236.542 567.635 236.25 567.703 235.891C567.771 235.531 567.805 235.094 567.805 234.578ZM579.32 227.625V228.836L574.922 239H572.547L576.945 229.383H571.281V227.625H579.32Z" fill="white"/>
<defs>
<linearGradient id="paint0_linear_335_5" x1="310" y1="0" x2="310" y2="268" gradientUnits="userSpaceOnUse">
<stop stop-color="#273029" stop-opacity="0"/>
<stop offset="1" stop-color="#273029"/>
</linearGradient>
</defs>
</svg>
